<?xml version="1.0" standalone="no"?>
<!DOCTYPE svg PUBLIC "-//W3C//DTD SVG 20010904//EN"
 "http://www.w3.org/TR/2001/REC-SVG-20010904/DTD/svg10.dtd">
<svg version="1.0" xmlns="http://www.w3.org/2000/svg"
 width="144.000000pt" height="144.000000pt" viewBox="0 0 144.000000 144.000000"
 preserveAspectRatio="xMidYMid meet">
<metadata>
Created by potrace 1.14, written by Peter Selinger 2001-2017
</metadata>
<g transform="translate(0.000000,144.000000) scale(0.100000,-0.100000)"
fill="#000000" stroke="none">
<path d="M0 730 c0 -390 2 -710 5 -710 2 0 28 14 57 31 113 67 311 141 416
155 l52 7 0 85 c0 65 4 90 17 104 15 17 15 18 -10 18 -14 0 -38 -5 -52 -12
-21 -9 -25 -18 -25 -53 0 -51 -17 -68 -62 -63 l-33 3 0 73 c0 70 2 75 32 102
36 32 88 50 148 50 l40 0 0 257 c0 168 4 282 13 325 11 59 10 72 -3 97 -36 70
-7 166 60 198 29 14 40 15 75 4 72 -21 106 -107 75 -187 -15 -41 -16 -57 -5
-165 9 -77 11 -192 8 -324 l-6 -205 42 0 c59 0 86 22 86 69 0 47 18 63 62 59
33 -3 33 -3 36 -63 4 -99 -42 -149 -149 -162 -47 -5 -49 -7 -34 -23 13 -14 16
-36 14 -96 l-2 -78 109 -22 c156 -32 288 -80 405 -149 33 -19 62 -35 65 -35 2
0 4 320 4 710 l0 710 -720 0 -720 0 0 -710z"/>
<path d="M646 1359 c-72 -57 -34 -199 54 -199 23 0 28 3 23 17 -5 13 -2 15 12
9 25 -9 38 14 17 31 -15 13 -15 13 4 8 28 -7 41 21 13 30 -25 8 -25 25 1 18
14 -4 20 0 20 11 0 9 -4 16 -8 16 -5 0 -17 7 -28 16 -18 15 -18 15 4 9 21 -6
22 -5 11 13 -27 44 -82 53 -123 21z"/>
<path d="M730 1139 c-13 -6 -41 -7 -61 -4 -35 6 -37 5 -43 -27 -11 -55 -19
-430 -11 -511 l7 -77 51 1 c29 0 46 3 40 6 -25 10 -13 22 13 13 34 -13 44 -13
44 4 0 8 -16 20 -35 26 -19 6 -35 16 -35 21 0 5 16 3 35 -5 32 -14 35 -14 35
3 0 12 -14 24 -42 34 -23 9 -39 19 -36 22 3 4 23 -1 43 -9 46 -20 45 -20 45 0
0 8 -17 22 -37 31 -21 9 -33 18 -26 20 7 2 21 0 32 -6 26 -15 31 -14 31 5 0 8
-17 22 -37 31 -21 9 -33 18 -26 20 7 2 21 0 32 -6 26 -15 31 -14 31 5 0 8 -15
21 -34 29 -19 8 -38 19 -41 25 -4 6 10 4 30 -4 46 -19 45 -19 45 -1 0 9 -19
25 -42 36 -41 19 -25 20 31 3 39 -12 21 18 -24 40 -22 11 -34 21 -28 23 7 3
21 0 32 -6 11 -6 25 -11 31 -11 20 0 -9 39 -35 46 -13 3 -30 13 -37 21 -10 13
-7 13 26 -1 47 -20 46 -20 46 0 0 9 -21 24 -52 37 -28 11 -46 23 -40 25 5 1
27 -4 47 -12 46 -20 45 -20 45 0 0 9 -17 22 -40 31 -22 9 -40 20 -40 25 0 4
16 2 35 -6 32 -14 35 -14 35 3 0 12 -14 24 -42 34 -48 19 -47 33 1 16 36 -13
50 -6 32 14 -6 8 -9 22 -5 31 7 18 8 18 -26 5z"/>
<path d="M960 585 c0 -86 -26 -95 -279 -95 -167 0 -201 -3 -231 -18 -40 -19
-70 -71 -70 -119 0 -29 3 -33 25 -33 22 0 25 4 25 36 0 85 26 94 277 94 209 0
248 7 277 52 8 13 16 43 18 68 3 40 1 45 -19 48 -20 3 -23 -1 -23 -33z"/>
<path d="M582 390 c-23 -29 -23 -33 -16 -180 l7 -150 43 0 44 0 0 73 c0 41 -3
122 -7 180 -6 100 -7 107 -27 106 -12 0 -31 -13 -44 -29z"/>
<path d="M685 303 c9 -191 15 -245 28 -240 8 2 18 63 29 158 23 216 25 199
-22 199 l-40 0 5 -117z"/>
<path d="M770 385 c0 -19 43 -38 49 -22 4 10 -26 37 -41 37 -4 0 -8 -7 -8 -15z"/>
<path d="M771 335 c2 -10 14 -21 27 -26 18 -7 22 -5 22 11 0 11 -4 20 -9 20
-5 0 -17 3 -26 6 -13 5 -16 2 -14 -11z"/>
<path d="M760 286 c0 -8 14 -19 30 -25 26 -9 30 -8 30 8 0 11 -10 21 -22 25
-33 8 -38 8 -38 -8z"/>
<path d="M760 240 c0 -11 12 -22 30 -29 26 -8 30 -8 30 7 0 10 -13 22 -30 29
-26 10 -30 9 -30 -7z"/>
<path d="M754 199 c-8 -14 3 -26 36 -37 26 -9 30 -9 30 6 0 20 -56 46 -66 31z"/>
<path d="M857 183 c-4 -3 -7 -33 -7 -65 l0 -58 50 0 c38 0 50 -4 50 -15 0 -13
-34 -15 -245 -15 -211 0 -245 2 -245 15 0 10 10 15 34 15 19 0 37 3 39 8 3 4
2 31 0 60 l-6 53 -41 -7 c-92 -15 -217 -58 -326 -112 l-115 -57 337 -3 c186
-1 490 -1 675 0 l338 3 -90 46 c-116 60 -211 94 -334 119 -114 23 -106 22
-114 13z"/>
<path d="M751 145 c2 -10 19 -25 37 -32 29 -12 32 -12 32 6 0 10 -8 21 -17 24
-10 2 -26 8 -37 12 -14 6 -17 4 -15 -10z"/>
<path d="M740 97 c0 -14 40 -37 65 -37 28 0 15 26 -18 38 -42 15 -47 15 -47
-1z"/>
</g>
</svg>
